<?xml version="1.0" encoding="UTF-8"?>
<svg width="50px" height="71px" viewBox="0 0 50 71" version="1.1" xmlns="http://www.w3.org/2000/svg" xmlns:xlink="http://www.w3.org/1999/xlink">
    <!-- Generator: Sketch 59.1 (86144) - https://sketch.com -->
    <title>security 2</title>
    <desc>Created with Sketch.</desc>
    <g id="Invision-5" stroke="none" stroke-width="1" fill="none" fill-rule="evenodd">
        <g id="Permission-3.1" transform="translate(-166.000000, -47.000000)" fill-rule="nonzero">
            <g id="security-2" transform="translate(166.000000, 47.000000)">
                <g id="security">
                    <path d="M24.9213399,0 L23.5504067,2.05479452 L24.9213399,4.10958904 C31.8760701,4.10958904 37.5347816,9.76830055 37.5347816,16.7230308 L37.5347816,33.713613 L41.6443707,33.713613 L41.6443707,16.7230308 C41.6443707,7.50214041 34.1422303,0 24.9213399,0 Z" id="Path" fill="#B4D2D7"></path>
                    <path d="M8.19830904,16.7230308 L8.19830904,33.713613 L12.3078981,33.713613 L12.3078981,16.7230308 C12.3078981,9.76830055 17.9660745,4.10958904 24.9213399,4.10958904 L24.9213399,0 C15.6999144,0 8.19830904,7.50214041 8.19830904,16.7230308 Z" id="Path" fill="#E1EBF0"></path>
                    <path d="M24.9213399,20.2943066 L22.088506,44.7666952 L24.9213399,70.1369863 C38.6847175,70.1369863 49.8426797,58.979559 49.8426797,45.2156464 C49.8426797,31.4522688 38.6847175,20.2943066 24.9213399,20.2943066 Z" id="Path" fill="#295DAB"></path>
                    <path d="M0,45.2156464 C0,58.979559 11.1574273,70.1369863 24.9213399,70.1369863 L24.9213399,20.2943066 C11.1574273,20.2943066 0,31.4522688 0,45.2156464 Z" id="Path" fill="#5495F7"></path>
                    <path d="M24.9213399,27.0895762 L22.088506,45.2156464 L24.9213399,63.3422518 C34.9159889,63.3422518 43.0474101,55.2108304 43.0474101,45.2156464 C43.0474101,35.2209974 34.9159889,27.0895762 24.9213399,27.0895762 Z" id="Path" fill="#B4D2D7"></path>
                    <path d="M6.79473452,45.2156464 C6.79473452,55.2108304 14.9261559,63.3422518 24.9213399,63.3422518 L24.9213399,27.0895762 C14.9261559,27.0895762 6.79473452,35.2209974 6.79473452,45.2156464 Z" id="Path" fill="#E1EBF0"></path>
                    <polygon id="Path" fill="#03232E" points="22.8665453 45.9043236 26.9761344 45.9043236 26.9761344 53.6365582 22.8665453 53.6365582"></polygon>
                    <path d="M24.9213399,36.7947345 L22.1794734,42.5476241 L24.9213399,48.3005137 C28.0982449,48.3005137 30.6742295,45.7250642 30.6742295,42.5476241 C30.6742295,39.3707192 28.0982449,36.7947345 24.9213399,36.7947345 L24.9213399,36.7947345 Z" id="Path" fill="#03232E"></path>
                    <path d="M19.1684504,42.5476241 C19.1684504,45.7250642 21.7438999,48.3005137 24.9213399,48.3005137 L24.9213399,36.7947345 C21.7438999,36.7947345 19.1684504,39.3707192 19.1684504,42.5476241 L19.1684504,42.5476241 Z" id="Path" fill="#07485E"></path>
                </g>
            </g>
        </g>
    </g>
</svg>